<?xml version="1.0" encoding="utf-8"?>
<svg
		version="1.1"
		xmlns="http://www.w3.org/2000/svg"
		xmlns:xlink="http://www.w3.org/1999/xlink"
		x="0%" y="0%"
		width="100%" height="100%"
		viewBox="0 0 70.0 70.0"
		enable-background="new 0 0 70.0 70.0"
		xml:space="preserve">
	<path
		fill="#21243D"
		fill-opacity="0.800"
		fill-rule="nonzero"
		stroke="#000000"
		stroke-opacity="0.800"
		stroke-width="1.4"
		stroke-linejoin="round"
		stroke-linecap="round"
		d="M35.05,1.25C53.78,1.25,68.96,16.39,68.96,35.08C68.96,53.76,53.78,68.90,35.05,68.90C16.33,68.90,1.15,53.76,1.15,35.08C1.15,16.39,16.33,1.25,35.05,1.25z"/>
	<path
		fill="#21243D"
		fill-opacity="0.698"
		fill-rule="nonzero"
		stroke="#FFFFFF"
		stroke-opacity="0.698"
		stroke-width="1.05"
		stroke-linejoin="miter"
		stroke-linecap="square"
		d="M35.09,2.38C53.16,2.38,67.81,17.02,67.81,35.09C67.81,53.16,53.16,67.81,35.09,67.81C17.02,67.81,2.38,53.16,2.38,35.09C2.38,17.02,17.02,2.38,35.09,2.38z"/>
	<path
		fill="#21243D"
		fill-opacity="1.000"
		fill-rule="nonzero"
		stroke="#000000"
		stroke-opacity="1.000"
		stroke-width="0.13999997"
		stroke-linejoin="miter"
		stroke-linecap="square"
		d="M41.35,15.09C44.32,15.47,44.68,13.13,41.54,13.08"/>
	<path
		fill="#21243D"
		fill-opacity="1.000"
		fill-rule="nonzero"
		stroke="#000000"
		stroke-opacity="1.000"
		stroke-width="0.13999997"
		stroke-linejoin="miter"
		stroke-linecap="square"
		d="M41.54,13.08L41.15,14.70"/>
	<path
		fill="#FFFFFF"
		fill-opacity="1.000"
		fill-rule="nonzero"
		stroke="#000000"
		stroke-opacity="1.000"
		stroke-width="0.14"
		stroke-linejoin="miter"
		stroke-linecap="square"
		d="M31.77,37.22C31.77,37.22,31.77,37.22,31.76,37.22"/>
	<path
		fill="#FFFFFF"
		fill-opacity="1.000"
		fill-rule="nonzero"
		stroke="#000000"
		stroke-opacity="1.000"
		stroke-width="0.14"
		stroke-linejoin="miter"
		stroke-linecap="square"
		d="M20.26,37.22C20.26,37.22,20.25,37.22,20.25,37.22"/>
	<path
		fill="#FFFFFF"
		fill-opacity="1.000"
		fill-rule="nonzero"
		stroke="#000000"
		stroke-opacity="1.000"
		stroke-width="0.14"
		stroke-linejoin="miter"
		stroke-linecap="square"
		d="M35.99,61.74C36.82,61.74,37.49,62.40,37.49,63.21C37.49,64.02,36.82,64.68,35.99,64.68C35.16,64.68,34.49,64.02,34.49,63.21C34.49,62.40,35.16,61.74,35.99,61.74z"/>
	<path
		fill="#FFFFFF"
		fill-opacity="1.000"
		fill-rule="nonzero"
		stroke="#000000"
		stroke-opacity="1.000"
		stroke-width="0.14"
		stroke-linejoin="miter"
		stroke-linecap="square"
		d="M19.90,60.79L18.89,61.39C19.93,63.19,22.58,63.62,23.77,62.16C25.39,60.25,24.30,57.16,20.89,57.49L20.94,58.69C24.82,58.69,22.60,63.48,19.90,60.79"/>
	<path
		fill="#FFFFFF"
		fill-opacity="1.000"
		fill-rule="nonzero"
		stroke="#000000"
		stroke-opacity="1.000"
		stroke-width="0.14"
		stroke-linejoin="miter"
		stroke-linecap="square"
		d="M15.25,52.59C16.86,52.59,18.17,53.96,18.17,55.64C18.17,57.33,16.86,58.69,15.25,58.69C13.64,58.69,12.33,57.33,12.33,55.64C12.33,53.96,13.64,52.59,15.25,52.59z"/>
	<path
		fill="#21243D"
		fill-opacity="1.000"
		fill-rule="nonzero"
		stroke="#000000"
		stroke-opacity="1.000"
		stroke-width="0.14"
		stroke-linejoin="miter"
		stroke-linecap="square"
		d="M15.25,53.86C16.22,53.86,17.00,54.67,17.00,55.68C17.00,56.68,16.22,57.49,15.25,57.49C14.28,57.49,13.50,56.68,13.50,55.68C13.50,54.67,14.28,53.86,15.25,53.86z"/>
	<path
		fill="#FFFFFF"
		fill-opacity="1.000"
		fill-rule="nonzero"
		stroke="#000000"
		stroke-opacity="1.000"
		stroke-width="0.14"
		stroke-linejoin="miter"
		stroke-linecap="square"
		d="M7.57,49.77Q7.46,49.57,7.36,49.31C6.79,47.82,9.09,46.33,10.15,47.53L11.33,45.63L11.99,46.91L10.99,48.68L11.24,49.09L12.66,48.32L13.33,49.49L8.84,52.01L7.57,49.77"/>
	<path
		fill="#FFFFFF"
		fill-opacity="1.000"
		fill-rule="nonzero"
		stroke="#000000"
		stroke-opacity="1.000"
		stroke-width="0.14"
		stroke-linejoin="miter"
		stroke-linecap="square"
		d="M10.05,41.80L9.72,40.48L5.77,41.60L5.34,40.02L4.15,40.36L5.34,44.75L6.55,44.42L6.13,42.88L10.05,41.80"/>
	<path
		fill="#FFFFFF"
		fill-opacity="1.000"
		fill-rule="nonzero"
		stroke="#000000"
		stroke-opacity="1.000"
		stroke-width="0.14070539"
		stroke-linejoin="miter"
		stroke-linecap="square"
		d="M51.25,55.28L54.13,52.59L57.55,56.50L54.61,59.11L53.84,58.22L55.66,56.54L55.12,55.95L53.52,57.42L52.71,56.54L54.30,55.07L53.70,54.47L51.97,56.04M51.25,55.28L51.97,56.04"/>
	<path
		fill="#FFFFFF"
		fill-opacity="1.000"
		fill-rule="nonzero"
		stroke="#000000"
		stroke-opacity="1.000"
		stroke-width="0.14070539"
		stroke-linejoin="miter"
		stroke-linecap="square"
		d="M9.12,32.33L9.10,36.41L3.91,36.22L4.03,32.29L5.22,32.33L5.19,34.81L5.98,34.82L6.01,32.65L7.21,32.67L7.19,34.83L8.03,34.86L8.03,32.33M9.11,32.33L8.03,32.33"/>
	<path
		fill="#FFFFFF"
		fill-opacity="1.000"
		fill-rule="nonzero"
		stroke="#000000"
		stroke-opacity="1.000"
		stroke-width="0.14"
		stroke-linejoin="miter"
		stroke-linecap="square"
		d="M24.71,5.89Q24.92,5.82,25.20,5.76C26.77,5.48,27.81,8.02,26.42,8.84L28.07,10.34L26.70,10.76L25.14,9.45L24.70,9.62L25.19,11.16L23.91,11.60L22.27,6.72L24.71,5.89"/>
	<path
		fill="#FFFFFF"
		fill-opacity="1.000"
		fill-rule="nonzero"
		stroke="#000000"
		stroke-opacity="1.000"
		stroke-width="0.14"
		stroke-linejoin="miter"
		stroke-linecap="square"
		d="M8.85,21.98C9.03,22.20,8.98,22.31,8.68,22.32L6.67,22.31L6.07,23.55L9.73,23.47L11.49,24.23L12.03,23.14L10.27,22.31L8.25,19.12L7.57,20.45L8.85,21.98"/>
	<path
		fill="#FFFFFF"
		fill-opacity="1.000"
		fill-rule="nonzero"
		stroke="#000000"
		stroke-opacity="1.000"
		stroke-width="0.14325169"
		stroke-linejoin="miter"
		stroke-linecap="square"
		d="M63.83,22.84C63.81,24.51,62.42,25.85,60.72,25.83C59.02,25.82,57.65,24.44,57.67,22.77C57.69,21.10,59.09,19.76,60.79,19.78C62.49,19.80,63.85,21.17,63.83,22.84z"/>
	<path
		fill="#21243D"
		fill-opacity="1.000"
		fill-rule="nonzero"
		stroke="#000000"
		stroke-opacity="1.000"
		stroke-width="0.13999997"
		stroke-linejoin="miter"
		stroke-linecap="square"
		d="M60.67,21.06C61.66,21.06,62.47,21.85,62.47,22.83C62.47,23.80,61.66,24.60,60.67,24.60C59.68,24.60,58.88,23.80,58.88,22.83C58.88,21.85,59.68,21.06,60.67,21.06z"/>
	<path
		fill="#FFFFFF"
		fill-opacity="1.000"
		fill-rule="nonzero"
		stroke="#000000"
		stroke-opacity="1.000"
		stroke-width="0.13999996"
		stroke-linejoin="miter"
		stroke-linecap="square"
		d="M45.77,28.20L56.31,28.20M53.68,28.20L48.40,28.20M53.68,28.20L48.40,28.20"/>
	<path
		fill="#FFFFFF"
		fill-opacity="1.000"
		fill-rule="nonzero"
		stroke="#000000"
		stroke-opacity="1.000"
		stroke-width="0.13999999"
		stroke-linejoin="round"
		stroke-linecap="square"
		d="M17.73,27.08L17.74,24.48L13.33,24.33C20.02,8.72,47.04,4.14,56.75,24.39C60.00,30.12,60.75,42.39,55.23,49.40Q53.87,50.67,52.91,50.19Q51.90,49.20,51.65,47.53L51.50,42.08L55.37,41.98L55.37,36.56L51.90,36.56L51.97,30.36L43.10,32.87L43.10,36.56L41.70,36.56L41.70,32.02Q41.70,27.53,40.01,26.03Q34.41,21.79,28.90,26.72Q23.08,22.50,17.97,27.24C17.86,27.31,17.74,27.29,17.73,27.08M57.01,13.09L55.72,11.90L52.01,15.54L53.32,16.87"/>
	<path
		fill="#FFFFFF"
		fill-opacity="1.000"
		fill-rule="nonzero"
		stroke="#000000"
		stroke-opacity="1.000"
		stroke-width="0.14"
		stroke-linejoin="miter"
		stroke-linecap="square"
		d="M49.08,62.79Q48.88,62.90,48.62,63.00C47.12,63.56,45.65,61.25,46.86,60.19L44.97,59.01L46.25,58.35L48.01,59.36L48.42,59.11L47.66,57.69L48.84,57.03L51.33,61.54L49.08,62.79"/>
	<path
		fill="#FFFFFF"
		fill-opacity="1.000"
		fill-rule="nonzero"
		stroke="#000000"
		stroke-opacity="1.000"
		stroke-width="0.14"
		stroke-linejoin="miter"
		stroke-linecap="square"
		d="M57.01,13.09C60.01,15.79,56.38,20.05,53.32,16.87"/>
	<path
		fill="#21243D"
		fill-opacity="1.000"
		fill-rule="nonzero"
		stroke="#000000"
		stroke-opacity="1.000"
		stroke-width="0.13999997"
		stroke-linejoin="miter"
		stroke-linecap="square"
		d="M55.93,13.69C58.06,15.60,55.93,17.82,53.93,15.60L55.93,13.69"/>
	<path
		fill="#FFFFFF"
		fill-opacity="1.000"
		fill-rule="nonzero"
		stroke="#000000"
		stroke-opacity="1.000"
		stroke-width="0.13999997"
		stroke-linejoin="miter"
		stroke-linecap="square"
		d="M66.04,34.15L62.02,34.34L62.10,36.53L60.88,36.56L60.73,32.92L65.97,32.66L66.04,34.15"/>
	<path
		fill="#FFFFFF"
		fill-opacity="1.000"
		fill-rule="nonzero"
		stroke="#000000"
		stroke-opacity="1.000"
		stroke-width="0.13999997"
		stroke-linejoin="miter"
		stroke-linecap="square"
		d="M36.04,9.17L34.57,9.22L34.11,8.34L32.44,8.42L32.06,9.43L30.58,9.48L32.29,4.04L33.66,3.97L36.04,9.17"/>
	<path
		fill="#21243D"
		fill-opacity="1.000"
		fill-rule="nonzero"
		stroke="#000000"
		stroke-opacity="1.000"
		stroke-width="0.13999997"
		stroke-linejoin="miter"
		stroke-linecap="square"
		d="M33.76,7.38L32.70,7.44L33.14,6.30L33.76,7.38"/>
	<path
		fill="#FFFFFF"
		fill-opacity="1.000"
		fill-rule="nonzero"
		stroke="#000000"
		stroke-opacity="1.000"
		stroke-width="0.13999997"
		stroke-linejoin="miter"
		stroke-linecap="square"
		d="M50.01,13.88L48.76,13.12L48.86,12.13L47.42,11.28L46.54,11.91L45.28,11.14L49.71,7.54L50.88,8.24L50.01,13.88"/>
	<path
		fill="#FFFFFF"
		fill-opacity="1.000"
		fill-rule="nonzero"
		stroke="#000000"
		stroke-opacity="1.000"
		stroke-width="0.13999997"
		stroke-linejoin="miter"
		stroke-linecap="square"
		d="M59.41,44.39L59.74,42.96L60.70,42.75L61.05,41.11L60.18,40.48L60.51,39.04L65.33,42.09L65.04,43.43L59.41,44.39"/>
	<path
		fill="#21243D"
		fill-opacity="1.000"
		fill-rule="nonzero"
		stroke="#000000"
		stroke-opacity="1.000"
		stroke-width="0.13999997"
		stroke-linejoin="miter"
		stroke-linecap="square"
		d="M61.84,42.62L62.05,41.58L63.04,42.30L61.84,42.62"/>
	<path
		fill="#FFFFFF"
		fill-opacity="1.000"
		fill-rule="nonzero"
		stroke="#000000"
		stroke-opacity="1.000"
		stroke-width="0.13999997"
		stroke-linejoin="miter"
		stroke-linecap="square"
		d="M20.61,12.82C17.42,19.58,10.90,10.48,18.16,9.57L18.17,10.65C14.51,11.28,16.72,15.46,19.22,13.02L18.78,12.41L17.91,13.09L17.18,12.10L19.06,10.73L20.61,12.82"/>
	<path
		fill="#FFFFFF"
		fill-opacity="1.000"
		fill-rule="nonzero"
		stroke="#000000"
		stroke-opacity="1.000"
		stroke-width="0.13999997"
		stroke-linejoin="miter"
		stroke-linecap="square"
		d="M41.54,10.02L38.93,9.54L39.87,4.36L42.45,4.83C43.93,5.13,44.09,6.84,42.80,7.44C43.93,8.34,43.29,10.34,41.54,10.02"/>
	<path
		fill="#FFFFFF"
		fill-opacity="1.000"
		fill-rule="nonzero"
		stroke="#000000"
		stroke-opacity="1.000"
		stroke-width="0.14"
		stroke-linejoin="miter"
		stroke-linecap="square"
		d="M60.67,50.89Q60.36,51.27,59.68,51.67L60.42,52.63Q61.72,51.67,62.05,50.99C62.88,49.00,61.11,47.72,59.68,48.86L58.87,49.63C58.06,50.26,56.96,49.46,59.44,47.80L58.82,46.82Q56.83,47.86,56.61,49.35C56.30,50.99,58.29,52.01,59.68,50.50C60.61,49.42,61.27,50.19,60.67,50.89"/>
	<path
		fill="#FFFFFF"
		fill-opacity="1.000"
		fill-rule="nonzero"
		stroke="#000000"
		stroke-opacity="1.000"
		stroke-width="0.14"
		stroke-linejoin="miter"
		stroke-linecap="square"
		d="M12.12,42.71L18.35,42.56L18.37,32.92C18.35,28.73,20.94,28.73,20.90,32.92L20.88,42.56L29.81,42.40L29.82,32.76C29.81,28.57,32.39,28.57,32.35,32.76L32.34,42.40L42.80,42.56C42.60,49.42,42.10,53.86,47.68,55.34C33.70,63.62,17.00,58.26,12.12,42.71"/>
	<path
		fill="#21243D"
		fill-opacity="1.000"
		fill-rule="nonzero"
		stroke="#000000"
		stroke-opacity="1.000"
		stroke-width="0.13999997"
		stroke-linejoin="miter"
		stroke-linecap="square"
		d="M49.17,11.12L48.25,10.58L49.25,9.88L49.17,11.12L48.25,10.59L49.24,9.88L49.17,11.12"/>
	<path
		fill="#21243D"
		fill-opacity="1.000"
		fill-rule="nonzero"
		stroke="#000000"
		stroke-opacity="1.000"
		stroke-width="0.14"
		stroke-linejoin="round"
		stroke-linecap="round"
		d="M25.25,8.01L24.11,8.44L23.75,7.47L24.88,7.03C25.61,6.87,25.90,7.68,25.25,8.01"/>
	<path
		fill="#21243D"
		fill-opacity="1.000"
		fill-rule="nonzero"
		stroke="#000000"
		stroke-opacity="1.000"
		stroke-width="0.14"
		stroke-linejoin="round"
		stroke-linecap="round"
		d="M41.89,6.73L40.69,6.52L40.88,5.50L42.07,5.70C42.78,5.94,42.61,6.78,41.89,6.73"/>
	<path
		fill="#21243D"
		fill-opacity="1.000"
		fill-rule="nonzero"
		stroke="#000000"
		stroke-opacity="1.000"
		stroke-width="0.14"
		stroke-linejoin="round"
		stroke-linecap="round"
		d="M41.49,8.95L40.29,8.74L40.48,7.73L41.67,7.92C42.38,8.16,42.21,9.01,41.49,8.95"/>
	<path
		fill="#21243D"
		fill-opacity="1.000"
		fill-rule="nonzero"
		stroke="#000000"
		stroke-opacity="1.000"
		stroke-width="0.14"
		stroke-linejoin="round"
		stroke-linecap="round"
		d="M47.97,60.86L49.02,60.25L49.54,61.14L48.50,61.76C47.80,62.03,47.39,61.28,47.97,60.86"/>
	<path
		fill="#21243D"
		fill-opacity="1.000"
		fill-rule="nonzero"
		stroke="#000000"
		stroke-opacity="1.000"
		stroke-width="0.14"
		stroke-linejoin="round"
		stroke-linecap="round"
		d="M9.53,48.81L10.14,49.86L9.25,50.38L8.63,49.34C8.35,48.64,9.10,48.23,9.53,48.81"/>
</svg>